<svg width="52" height="19" viewBox="0 0 52 19" fill="none" xmlns="http://www.w3.org/2000/svg">
<path d="M11.456 1.152V4.44H4.592V7.992H9.728V11.184H4.592V18H0.488V1.152H11.456ZM19.709 18.168C18.477 18.168 17.373 17.968 16.397 17.568C15.421 17.168 14.637 16.576 14.045 15.792C13.469 15.008 13.165 14.064 13.133 12.96H17.501C17.565 13.584 17.781 14.064 18.149 14.4C18.517 14.72 18.997 14.88 19.589 14.88C20.197 14.88 20.677 14.744 21.029 14.472C21.381 14.184 21.557 13.792 21.557 13.296C21.557 12.88 21.413 12.536 21.125 12.264C20.853 11.992 20.509 11.768 20.093 11.592C19.693 11.416 19.117 11.216 18.365 10.992C17.277 10.656 16.389 10.32 15.701 9.984C15.013 9.648 14.421 9.152 13.925 8.496C13.429 7.84 13.181 6.984 13.181 5.928C13.181 4.36 13.749 3.136 14.885 2.256C16.021 1.36 17.501 0.912 19.325 0.912C21.181 0.912 22.677 1.36 23.813 2.256C24.949 3.136 25.557 4.368 25.637 5.952H21.197C21.165 5.408 20.965 4.984 20.597 4.68C20.229 4.36 19.757 4.2 19.181 4.2C18.685 4.2 18.285 4.336 17.981 4.608C17.677 4.864 17.525 5.24 17.525 5.736C17.525 6.28 17.781 6.704 18.293 7.008C18.805 7.312 19.605 7.64 20.693 7.992C21.781 8.36 22.661 8.712 23.333 9.048C24.021 9.384 24.613 9.872 25.109 10.512C25.605 11.152 25.853 11.976 25.853 12.984C25.853 13.944 25.605 14.816 25.109 15.6C24.629 16.384 23.925 17.008 22.997 17.472C22.069 17.936 20.973 18.168 19.709 18.168ZM51.5626 1.152L47.1706 18H42.2026L39.5146 6.912L36.7306 18H31.7626L27.4906 1.152H31.8826L34.3066 13.416L37.3066 1.152H41.8186L44.6986 13.416L47.1466 1.152H51.5626Z" fill="url(#paint0_linear_3817_57)"/>
<defs>
<linearGradient id="paint0_linear_3817_57" x1="-1" y1="10" x2="20.121" y2="10" gradientUnits="userSpaceOnUse">
<stop stop-color="#5033C3"/>
<stop offset="1" stop-color="#8162FF"/>
</linearGradient>
</defs>
</svg>
